<svg version="1.1" id="Layer_1" xmlns="http://www.w3.org/2000/svg" xmlns:xlink="http://www.w3.org/1999/xlink" x="0px" y="0px"
	 width="100%" viewBox="0 0 827 301" enable-background="new 0 0 827 301" xml:space="preserve">
<path fill="#ffffff" opacity="0" stroke="none" 
	d="
M635.000000,302.000000 
	C423.333344,302.000000 212.166672,302.000000 1.000000,302.000000 
	C1.000000,201.666672 1.000000,101.333336 1.000000,1.000000 
	C276.666656,1.000000 552.333313,1.000000 828.000000,1.000000 
	C828.000000,101.333336 828.000000,201.666672 828.000000,302.000000 
	C763.833313,302.000000 699.666687,302.000000 635.000000,302.000000 
M340.950745,82.032913 
	C340.950745,82.032913 340.870728,82.019516 340.936310,82.684448 
	C341.270782,83.201027 341.605255,83.717606 342.064148,84.637505 
	C342.228180,84.894600 342.462189,85.035332 342.924683,85.759766 
	C343.601898,86.229706 344.279144,86.699654 344.987244,87.875259 
	C351.015991,96.031006 357.061493,104.174408 363.069519,112.345383 
	C372.289642,124.884727 381.422424,137.488754 390.708466,149.978958 
	C398.283936,160.168335 406.094269,170.183746 413.609253,180.416672 
	C414.448547,181.559540 414.807831,184.175400 414.089874,185.167847 
	C406.978943,194.997543 399.539581,204.588562 392.302460,214.328339 
	C385.778870,223.107834 379.427185,232.014832 372.935272,240.818069 
	C365.506561,250.891586 357.955353,260.875000 350.557434,270.970886 
	C346.259186,276.836639 342.157410,282.846375 337.228912,288.972626 
	C336.084229,290.750427 334.939545,292.528259 333.339813,295.012787 
	C355.140045,295.012787 375.897522,295.019165 396.654785,294.966980 
	C397.069824,294.965942 397.483185,294.280548 398.181274,293.299835 
	C402.295502,288.142883 406.557587,283.095978 410.494568,277.807068 
	C420.075562,264.936096 429.499054,251.947952 438.998840,239.016449 
	C445.759369,229.813721 452.482727,220.582870 459.329559,211.444687 
	C465.931824,202.632980 472.704681,193.948990 479.285583,185.121704 
	C479.804169,184.426056 479.859344,182.722336 479.366119,182.036209 
	C473.674194,174.118378 467.875092,166.276337 462.025726,158.473145 
	C450.735138,143.411270 439.371765,128.403931 428.080719,113.342377 
	C418.753815,100.900909 409.487671,88.413902 399.977081,75.426170 
	C399.660767,75.243393 399.344421,75.060616 399.042969,74.958992 
	C399.042969,74.958992 399.122528,74.937241 399.042206,74.260147 
	C398.649506,73.485062 398.256775,72.709976 397.560791,71.123978 
	C376.989349,71.083435 356.417908,71.041336 335.846466,71.008080 
	C335.026886,71.006752 334.207214,71.089363 333.387573,71.132866 
	C333.599670,71.763100 333.811768,72.393341 334.207123,73.675316 
	C336.122192,75.811165 338.037292,77.947014 339.969330,80.014153 
	C339.969330,80.014153 339.898560,80.013924 339.995605,80.640533 
	C340.307129,81.130821 340.618683,81.621117 340.950745,82.032913 
M237.797653,177.807739 
	C238.199066,176.675079 238.944168,175.544205 238.950012,174.409500 
	C239.029953,158.932449 239.027008,143.454773 238.965164,127.977577 
	C238.961212,126.988113 238.305573,126.001251 237.545761,124.520836 
	C182.563858,124.520836 127.581970,124.520836 72.381470,124.520836 
	C72.381470,104.047592 72.381470,84.691818 72.381470,65.594177 
	C75.566177,65.021027 78.307159,64.527740 81.380753,64.842903 
	C133.618683,64.859123 185.856598,64.875343 238.705399,64.816704 
	C238.765182,64.237358 238.824982,63.658020 238.976013,62.123325 
	C238.980865,46.393593 239.010696,30.663754 238.943253,14.934331 
	C238.937851,13.673934 238.262100,12.416412 237.452057,11.072012 
	C237.452057,11.072012 237.005096,11.151344 236.065262,11.021010 
	C172.853058,11.014696 109.640862,11.001264 46.428665,11.008426 
	C34.620174,11.009764 22.811689,11.093662 10.151222,11.352023 
	C10.101251,11.680710 10.007505,12.009393 10.007483,12.338082 
	C10.001097,105.398849 9.997594,198.459625 10.043529,291.520355 
	C10.044086,292.648712 10.682524,293.776733 11.942409,295.040527 
	C28.297369,294.984772 44.652328,294.928986 61.910645,294.949951 
	C73.549843,294.982330 71.949432,295.893127 71.965523,284.791412 
	C72.013557,251.667908 71.977295,218.544266 71.973999,185.420685 
	C71.973770,183.132538 71.973969,180.844391 71.973969,178.324829 
	C74.689400,178.148056 76.804253,178.010391 79.871620,177.992294 
	C127.418587,177.994705 174.965546,178.003098 222.512512,177.990417 
	C227.327423,177.989136 232.142303,177.860916 237.797653,177.807739 
M313.702301,71.178413 
	C295.175018,71.118050 276.647736,71.048439 258.120422,71.035049 
	C257.459656,71.034569 256.798492,71.589943 256.060272,72.834961 
	C256.042938,145.734070 256.025085,218.633179 256.015167,291.532288 
	C256.015045,292.361786 256.118927,293.191284 256.575378,294.753876 
	C274.369354,294.790161 292.163361,294.826447 310.651367,294.939911 
	C311.445618,294.615173 312.239868,294.290436 313.818726,293.591797 
	C313.878632,291.767212 313.990570,289.942627 313.990875,288.118042 
	C314.000366,235.057327 314.009918,181.996597 313.992859,128.935883 
	C313.986755,109.976341 313.911896,91.016808 313.702301,71.178413 
M582.009460,72.935303 
	C582.006226,145.510681 581.997009,218.086060 582.044983,290.661407 
	C582.045898,292.063934 582.722534,293.466003 583.736328,294.919708 
	C584.171387,294.893158 584.606445,294.866577 585.965576,294.984161 
	C602.953369,294.929504 619.941162,294.874847 637.647278,294.909149 
	C638.127014,294.870026 638.606812,294.830872 639.945129,294.906738 
	C640.295959,294.120697 640.953552,293.334747 640.953735,292.548645 
	C640.961792,250.703506 640.914429,208.858383 641.241882,166.288254 
	C641.467712,165.676147 641.856689,165.074081 641.895081,164.450439 
	C642.548706,153.825851 647.577026,145.147644 655.266846,138.466873 
	C666.321350,128.862900 679.517212,123.945091 694.350891,123.983429 
	C698.845093,123.995041 703.339539,123.995697 707.833679,123.964699 
	C721.248596,123.872169 733.224304,128.350647 743.820496,136.196259 
	C753.493896,143.358521 759.077393,153.332886 761.084778,166.093369 
	C761.056152,188.542633 761.018555,210.991882 761.001648,233.441147 
	C760.987244,252.565475 760.959961,271.690063 761.076172,290.813690 
	C761.084167,292.123901 762.244934,293.427124 763.424500,294.852966 
	C763.613647,294.858307 763.802734,294.863678 764.924561,295.013397 
	C781.929382,294.957123 798.934204,294.900818 816.661682,294.922485 
	C817.386108,294.900299 818.110596,294.878143 819.702698,294.635315 
	C819.804138,293.983368 819.994202,293.331451 819.994385,292.679474 
	C820.005432,251.924545 820.009583,211.169586 819.954346,170.414749 
	C819.952820,169.255875 819.305054,168.097900 818.970703,166.023834 
	C818.640564,161.582428 818.926208,156.986328 817.857178,152.730545 
	C815.323730,142.645004 813.337891,132.163177 808.974915,122.851654 
	C800.762268,105.324097 787.959961,91.354622 770.773499,81.909943 
	C765.955261,79.262146 760.963074,76.671608 755.738098,75.083282 
	C747.720215,72.645966 739.511536,70.569038 731.235779,69.321472 
	C722.723328,68.038231 713.984558,67.065590 705.434326,67.547310 
	C696.242310,68.065201 687.181824,70.621902 678.014160,71.943352 
	C666.623291,73.585274 657.202393,79.149979 648.597900,86.287369 
	C646.123230,88.340065 644.404480,91.303932 642.339172,93.850044 
	C641.823608,93.435745 641.308105,93.021454 640.792603,92.607155 
	C640.792603,85.793030 640.792603,78.978905 640.764343,71.247665 
	C621.654419,71.170998 602.544556,71.087769 583.434570,71.059151 
	C582.999329,71.058495 582.563171,71.676048 582.009460,72.935303 
M499.943329,294.962799 
	C519.272278,294.916321 538.601196,294.869843 558.584961,294.872711 
	C562.327515,293.724396 559.851746,291.769348 558.934021,290.482391 
	C555.356506,285.465210 551.574890,280.593414 547.862671,275.672394 
	C541.976013,267.868713 536.005432,260.126801 530.213318,252.253586 
	C522.081177,241.199631 514.099976,230.034729 505.999603,218.957184 
	C504.898590,217.451569 503.481934,216.176788 501.905121,214.462021 
	C492.031799,227.804901 482.669464,240.606552 473.116425,253.264267 
	C470.677887,256.495300 470.974823,258.903503 473.407898,261.998535 
	C477.958710,267.787476 481.934937,274.026093 486.438904,279.854492 
	C490.425049,285.012787 494.803467,289.867950 499.943329,294.962799 
M560.871399,73.778450 
	C561.234314,72.968422 561.597229,72.158401 562.120056,70.991631 
	C541.238159,70.991631 521.084351,70.977600 500.930847,71.033905 
	C499.944366,71.036659 498.959564,71.654854 497.379547,72.319122 
	C494.704803,75.545280 491.877075,78.658051 489.385468,82.019966 
	C483.204224,90.360329 477.093597,98.757187 471.194733,107.297218 
	C470.477020,108.336288 470.619537,110.838356 471.399536,111.904274 
	C477.112762,119.712082 483.112610,127.309509 488.977173,135.007492 
	C493.291412,140.670502 497.537781,146.385239 502.406982,152.865677 
	C510.578644,142.006897 518.064575,132.143509 525.459839,122.212608 
	C536.602356,107.249557 547.696350,92.250229 558.752563,77.223335 
	C559.451660,76.273087 559.646301,74.951637 560.871399,73.778450 
M285.500000,47.991840 
	C294.920898,47.991840 304.341827,47.991840 314.005035,47.991840 
	C314.005035,36.541088 313.927582,25.734264 314.052826,14.929791 
	C314.089783,11.741838 312.653564,10.947581 309.800079,10.988477 
	C302.307739,11.095854 294.812836,11.030915 287.318970,11.031946 
	C277.040802,11.033361 266.762604,11.032300 256.303528,11.032300 
	C256.303528,23.548843 256.303528,35.592152 256.303528,47.991779 
	C265.908020,47.991779 275.204010,47.991779 285.500000,47.991840 
z"/>
<path fill="#0E795F" opacity="1.000000" stroke="none" 
	d="
M237.005096,11.151349 
	C237.005096,11.151344 237.452057,11.072012 237.697495,11.570038 
	C237.956757,27.167709 237.939041,42.267532 238.023956,57.366779 
	C238.034683,59.272297 238.584641,61.174786 238.884766,63.078674 
	C238.824982,63.658020 238.765182,64.237358 238.135620,64.507530 
	C236.741119,64.127800 235.916382,63.995419 235.091660,63.995514 
	C183.743820,64.001610 132.395981,64.018524 81.048134,64.034447 
	C78.307159,64.527740 75.566177,65.021027 72.381470,65.594177 
	C72.381470,84.691818 72.381470,104.047592 72.381470,124.520836 
	C127.581970,124.520836 182.563858,124.520836 237.754440,125.234833 
	C237.974075,141.174500 238.022705,156.400345 237.947266,171.625595 
	C237.938065,173.480347 237.261993,175.331802 236.439514,177.101913 
	C185.006744,177.006012 134.029465,176.985962 83.052216,177.017410 
	C81.674339,177.018265 80.296799,177.575134 78.919106,177.872711 
	C76.804253,178.010391 74.689400,178.148056 71.973969,178.324829 
	C71.973969,180.844391 71.973770,183.132538 71.973999,185.420685 
	C71.977295,218.544266 72.013557,251.667908 71.965523,284.791412 
	C71.949432,295.893127 73.549843,294.982330 61.132572,294.652893 
	C58.541809,294.234772 56.729790,294.020416 54.916321,294.007355 
	C40.620583,293.904236 26.324570,293.839569 12.021793,293.316345 
	C12.010752,201.805038 12.004677,110.740402 12.006323,19.675779 
	C12.006441,13.145094 12.152438,13.003407 18.767735,13.001928 
	C55.726330,12.993667 92.684944,13.011575 129.643478,12.961349 
	C131.744095,12.958495 133.843994,12.432000 136.414200,12.101856 
	C168.921417,12.091402 200.958664,12.128309 233.058197,12.418481 
	C233.746216,12.507085 234.371918,12.342424 235.282715,12.111020 
	C236.046906,11.746635 236.526001,11.448995 237.005096,11.151349 
z"/>
<path fill="#0E795F" opacity="1.000000" stroke="none" 
	d="
M761.237610,165.188354 
	C759.077393,153.332886 753.493896,143.358521 743.820496,136.196259 
	C733.224304,128.350647 721.248596,123.872169 707.833679,123.964699 
	C703.339539,123.995697 698.845093,123.995041 694.350891,123.983429 
	C679.517212,123.945091 666.321350,128.862900 655.266846,138.466873 
	C647.577026,145.147644 642.548706,153.825851 641.895081,164.450439 
	C641.856689,165.074081 641.467712,165.676147 640.780212,166.963989 
	C640.204895,169.623337 639.992920,171.606918 639.992126,173.590576 
	C639.977234,211.882874 640.001404,250.175186 639.953064,288.467407 
	C639.950439,290.575897 639.388245,292.683655 639.086548,294.791748 
	C638.606812,294.830872 638.127014,294.870026 636.954712,294.630981 
	C619.786804,294.255066 603.311340,294.149017 586.835815,294.092926 
	C586.238586,294.090881 585.639648,294.579865 585.041504,294.840027 
	C584.606445,294.866577 584.171387,294.893158 583.410156,294.437439 
	C583.062744,223.504776 583.039246,153.054398 583.027527,82.604012 
	C583.026917,79.108841 583.128906,75.613647 583.635315,72.046021 
	C602.989197,72.037308 621.890869,72.101044 640.792603,72.164780 
	C640.792603,78.978905 640.792603,85.793030 640.792603,92.607155 
	C641.308105,93.021454 641.823608,93.435745 642.339172,93.850044 
	C644.404480,91.303932 646.123230,88.340065 648.597900,86.287369 
	C657.202393,79.149979 666.623291,73.585274 678.014160,71.943352 
	C687.181824,70.621902 696.242310,68.065201 705.434326,67.547310 
	C713.984558,67.065590 722.723328,68.038231 731.235779,69.321472 
	C739.511536,70.569038 747.720215,72.645966 755.738098,75.083282 
	C760.963074,76.671608 765.955261,79.262146 770.773499,81.909943 
	C787.959961,91.354622 800.762268,105.324097 808.974915,122.851654 
	C813.337891,132.163177 815.323730,142.645004 817.857178,152.730545 
	C818.926208,156.986328 818.640564,161.582428 818.966919,166.954651 
	C818.920410,210.208969 818.877747,252.532455 818.835022,294.855957 
	C818.110596,294.878143 817.386108,294.900299 815.969604,294.644836 
	C798.768982,294.269348 782.260437,294.163147 765.751831,294.107544 
	C765.166077,294.105560 764.578552,294.603882 763.991882,294.869019 
	C763.802734,294.863678 763.613647,294.858307 762.935791,294.451416 
	C762.302246,291.578705 762.032837,289.107666 762.031189,286.636414 
	C762.005432,248.088684 762.025574,209.540955 761.982117,170.993271 
	C761.979919,169.058029 761.496765,167.123322 761.237610,165.188354 
z"/>
<path fill="#63C1AB" opacity="1.000000" stroke="none" 
	d="
M342.766144,85.059700 
	C342.462189,85.035332 342.228180,84.894600 341.980988,84.111633 
	C341.555450,83.063675 341.213104,82.541595 340.870728,82.019516 
	C340.870728,82.019516 340.950745,82.032913 340.922180,81.763260 
	C340.561951,81.000374 340.230255,80.507149 339.898560,80.013924 
	C339.898560,80.013924 339.969330,80.014153 339.964203,79.675934 
	C339.160645,77.464661 338.362244,75.591599 337.260376,73.006683 
	C339.624542,73.006683 341.404083,73.006882 343.183624,73.006653 
	C358.661102,73.004646 374.139893,72.896172 389.614960,73.088333 
	C392.791321,73.127785 395.953705,74.291664 399.122528,74.937241 
	C399.122528,74.937241 399.042969,74.958992 399.176575,75.150314 
	C399.604980,75.543442 399.899811,75.745262 400.194611,75.947075 
	C409.487671,88.413902 418.753815,100.900909 428.080719,113.342377 
	C439.371765,128.403931 450.735138,143.411270 462.025726,158.473145 
	C467.875092,166.276337 473.674194,174.118378 479.366119,182.036209 
	C479.859344,182.722336 479.804169,184.426056 479.285583,185.121704 
	C472.704681,193.948990 465.931824,202.632980 459.329559,211.444687 
	C452.482727,220.582870 445.759369,229.813721 438.998840,239.016449 
	C429.499054,251.947952 420.075562,264.936096 410.494568,277.807068 
	C406.557587,283.095978 402.295502,288.142883 397.578094,293.625977 
	C376.834778,293.952148 356.694672,293.952148 335.963928,293.952148 
	C336.904236,291.529724 337.435730,290.160522 337.967224,288.791321 
	C342.157410,282.846375 346.259186,276.836639 350.557434,270.970886 
	C357.955353,260.875000 365.506561,250.891586 372.935272,240.818069 
	C379.427185,232.014832 385.778870,223.107834 392.302460,214.328339 
	C399.539581,204.588562 406.978943,194.997543 414.089874,185.167847 
	C414.807831,184.175400 414.448547,181.559540 413.609253,180.416672 
	C406.094269,170.183746 398.283936,160.168335 390.708466,149.978958 
	C381.422424,137.488754 372.289642,124.884727 363.069519,112.345383 
	C357.061493,104.174408 351.015991,96.031006 344.913269,87.184418 
	C344.148254,86.015610 343.457214,85.537659 342.766144,85.059700 
z"/>
<path fill="#0D795F" opacity="1.000000" stroke="none" 
	d="
M313.034119,293.965698 
	C312.239868,294.290436 311.445618,294.615173 309.977417,294.653076 
	C307.494934,294.240967 305.686676,294.011932 303.877777,294.006683 
	C288.288330,293.961456 272.698730,293.956573 257.085052,293.475403 
	C257.046234,250.219009 257.029755,207.426895 257.017426,164.634766 
	C257.009155,135.829025 257.057007,107.023087 256.939545,78.217804 
	C256.924469,74.513992 257.702362,72.837158 261.888489,72.897064 
	C278.868530,73.140022 295.853210,73.056305 312.893188,73.550049 
	C312.978180,147.326569 313.006134,220.646133 313.034119,293.965698 
z"/>
<path fill="#117960" opacity="1.000000" stroke="none" 
	d="
M560.075623,73.802879 
	C559.646301,74.951637 559.451660,76.273087 558.752563,77.223335 
	C547.696350,92.250229 536.602356,107.249557 525.459839,122.212608 
	C518.064575,132.143509 510.578644,142.006897 502.406982,152.865677 
	C497.537781,146.385239 493.291412,140.670502 488.977173,135.007492 
	C483.112610,127.309509 477.112762,119.712082 471.399536,111.904274 
	C470.619537,110.838356 470.477020,108.336288 471.194733,107.297218 
	C477.093597,98.757187 483.204224,90.360329 489.385468,82.019966 
	C491.877075,78.658051 494.704803,75.545280 498.146118,72.187546 
	C511.480804,72.041817 524.048889,72.023880 536.616943,72.014984 
	C543.893066,72.009834 551.169739,71.980652 558.444031,72.098961 
	C558.996948,72.107948 559.532166,73.209297 560.075623,73.802879 
z"/>
<path fill="#10795F" opacity="1.000000" stroke="none" 
	d="
M499.008698,294.856934 
	C494.803467,289.867950 490.425049,285.012787 486.438904,279.854492 
	C481.934937,274.026093 477.958710,267.787476 473.407898,261.998535 
	C470.974823,258.903503 470.677887,256.495300 473.116425,253.264267 
	C482.669464,240.606552 492.031799,227.804901 501.905121,214.462021 
	C503.481934,216.176788 504.898590,217.451569 505.999603,218.957184 
	C514.099976,230.034729 522.081177,241.199631 530.213318,252.253586 
	C536.005432,260.126801 541.976013,267.868713 547.862671,275.672394 
	C551.574890,280.593414 555.356506,285.465210 558.934021,290.482391 
	C559.851746,291.769348 562.327515,293.724396 557.923462,294.616943 
	C538.444397,294.266571 519.626831,294.164703 500.809204,294.110535 
	C500.209778,294.108795 499.608887,294.597076 499.008698,294.856934 
z"/>
<path fill="#63C0AA" opacity="1.000000" stroke="none" 
	d="
M285.000000,47.991810 
	C275.204010,47.991779 265.908020,47.991779 256.303528,47.991779 
	C256.303528,35.592152 256.303528,23.548843 256.303528,11.032300 
	C266.762604,11.032300 277.040802,11.033361 287.318970,11.031946 
	C294.812836,11.030915 302.307739,11.095854 309.800079,10.988477 
	C312.653564,10.947581 314.089783,11.741838 314.052826,14.929791 
	C313.927582,25.734264 314.005035,36.541088 314.005035,47.991840 
	C304.341827,47.991840 294.920898,47.991840 285.000000,47.991810 
z"/>
<path fill="#BBDDDD" opacity="1.000000" stroke="none" 
	d="
M11.023211,294.904907 
	C10.682524,293.776733 10.044086,292.648712 10.043529,291.520355 
	C9.997594,198.459625 10.001097,105.398849 10.007483,12.338082 
	C10.007505,12.009393 10.101251,11.680710 10.607580,11.493499 
	C11.063937,11.634974 11.162713,12.124824 11.098703,12.581797 
	C11.023495,104.512367 11.010139,195.985962 11.014289,287.459564 
	C11.014387,289.614807 11.210985,291.770020 11.262304,294.176025 
	C11.146857,294.586151 11.085034,294.745514 11.023211,294.904907 
z"/>
<path fill="#377767" opacity="1.000000" stroke="none" 
	d="
M312.836182,73.093079 
	C295.853210,73.056305 278.868530,73.140022 261.888489,72.897064 
	C257.702362,72.837158 256.924469,74.513992 256.939545,78.217804 
	C257.057007,107.023087 257.009155,135.829025 257.017426,164.634766 
	C257.029755,207.426895 257.046234,250.219009 256.851196,293.500336 
	C256.641449,293.989532 256.174286,294.020782 256.174286,294.020782 
	C256.118927,293.191284 256.015045,292.361786 256.015167,291.532288 
	C256.025085,218.633179 256.042938,145.734070 256.557495,72.390602 
	C275.668549,72.005600 294.282379,72.064957 312.919922,72.368904 
	C312.943573,72.613495 312.836182,73.093079 312.836182,73.093079 
z"/>
<path fill="#70B09F" opacity="1.000000" stroke="none" 
	d="
M11.162713,12.124824 
	C11.162713,12.124824 11.063937,11.634974 11.033569,11.387218 
	C22.811689,11.093662 34.620174,11.009764 46.428665,11.008426 
	C109.640862,11.001264 172.853058,11.014696 236.535187,11.086182 
	C236.526001,11.448995 236.046906,11.746635 234.950775,12.058290 
	C233.887802,12.103275 233.441864,12.134246 232.995911,12.165216 
	C200.958664,12.128309 168.921417,12.091402 135.953522,12.047790 
	C93.736145,12.068997 52.449429,12.096910 11.162713,12.124824 
z"/>
<path fill="#AEDBD1" opacity="1.000000" stroke="none" 
	d="
M583.183167,72.118469 
	C583.128906,75.613647 583.026917,79.108841 583.027527,82.604012 
	C583.039246,153.054398 583.062744,223.504776 583.083923,294.411713 
	C582.722534,293.466003 582.045898,292.063934 582.044983,290.661407 
	C581.997009,218.086060 582.006226,145.510681 582.332642,72.495651 
	C582.831604,72.076820 583.007385,72.097641 583.183167,72.118469 
z"/>
<path fill="#9ADBCC" opacity="1.000000" stroke="none" 
	d="
M312.893188,73.550049 
	C312.836182,73.093079 312.943573,72.613495 313.162628,72.350319 
	C313.381683,72.087143 313.868408,72.057274 313.868408,72.057274 
	C313.911896,91.016808 313.986755,109.976341 313.992859,128.935883 
	C314.009918,181.996597 314.000366,235.057327 313.990875,288.118042 
	C313.990570,289.942627 313.878632,291.767212 313.426422,293.778748 
	C313.006134,220.646133 312.978180,147.326569 312.893188,73.550049 
z"/>
<path fill="#CCE9E2" opacity="1.000000" stroke="none" 
	d="
M79.395363,177.932510 
	C80.296799,177.575134 81.674339,177.018265 83.052216,177.017410 
	C134.029465,176.985962 185.006744,177.006012 236.439240,177.255280 
	C236.894455,177.491501 236.957199,177.791611 236.957199,177.791611 
	C232.142303,177.860916 227.327423,177.989136 222.512512,177.990417 
	C174.965546,178.003098 127.418587,177.994705 79.395363,177.932510 
z"/>
<path fill="#D1FFFF" opacity="1.000000" stroke="none" 
	d="
M81.214447,64.438675 
	C132.395981,64.018524 183.743820,64.001610 235.091660,63.995514 
	C235.916382,63.995419 236.741119,64.127800 237.830185,64.544960 
	C185.856598,64.875343 133.618683,64.859123 81.214447,64.438675 
z"/>
<path fill="#97D1C4" opacity="1.000000" stroke="none" 
	d="
M761.161194,165.640869 
	C761.496765,167.123322 761.979919,169.058029 761.982117,170.993271 
	C762.025574,209.540955 762.005432,248.088684 762.031189,286.636414 
	C762.032837,289.107666 762.302246,291.578705 762.658325,294.391724 
	C762.244934,293.427124 761.084167,292.123901 761.076172,290.813690 
	C760.959961,271.690063 760.987244,252.565475 761.001648,233.441147 
	C761.018555,210.991882 761.056152,188.542633 761.161194,165.640869 
z"/>
<path fill="#6CAEA1" opacity="1.000000" stroke="none" 
	d="
M639.515808,294.849243 
	C639.388245,292.683655 639.950439,290.575897 639.953064,288.467407 
	C640.001404,250.175186 639.977234,211.882874 639.992126,173.590576 
	C639.992920,171.606918 640.204895,169.623337 640.595703,167.326477 
	C640.914429,208.858383 640.961792,250.703506 640.953735,292.548645 
	C640.953552,293.334747 640.295959,294.120697 639.515808,294.849243 
z"/>
<path fill="#81B2A2" opacity="1.000000" stroke="none" 
	d="
M819.268860,294.745636 
	C818.877747,252.532455 818.920410,210.208969 818.960815,167.412491 
	C819.305054,168.097900 819.952820,169.255875 819.954346,170.414749 
	C820.009583,211.169586 820.005432,251.924545 819.994385,292.679474 
	C819.994202,293.331451 819.804138,293.983368 819.268860,294.745636 
z"/>
<path fill="#74B5A5" opacity="1.000000" stroke="none" 
	d="
M399.082367,74.598694 
	C395.953705,74.291664 392.791321,73.127785 389.614960,73.088333 
	C374.139893,72.896172 358.661102,73.004646 343.183624,73.006653 
	C341.404083,73.006882 339.624542,73.006683 337.260376,73.006683 
	C338.362244,75.591599 339.160645,77.464661 339.955719,79.710289 
	C338.037292,77.947014 336.122192,75.811165 334.368988,73.009140 
	C336.510223,72.226395 338.489349,72.012886 340.468964,72.008286 
	C359.600616,71.963760 378.732330,71.954353 397.864075,71.934898 
	C398.256775,72.709976 398.649506,73.485062 399.082367,74.598694 
z"/>
<path fill="#80BFAF" opacity="1.000000" stroke="none" 
	d="
M337.598083,288.881958 
	C337.435730,290.160522 336.904236,291.529724 335.963928,293.952148 
	C356.694672,293.952148 376.834778,293.952148 397.436127,293.933289 
	C397.483185,294.280548 397.069824,294.965942 396.654785,294.966980 
	C375.897522,295.019165 355.140045,295.012787 333.339813,295.012787 
	C334.939545,292.528259 336.084229,290.750427 337.598083,288.881958 
z"/>
<path fill="#C9F1EF" opacity="1.000000" stroke="none" 
	d="
M560.473511,73.790665 
	C559.532166,73.209297 558.996948,72.107948 558.444031,72.098961 
	C551.169739,71.980652 543.893066,72.009834 536.616943,72.014984 
	C524.048889,72.023880 511.480804,72.041817 498.443359,72.021210 
	C498.959564,71.654854 499.944366,71.036659 500.930847,71.033905 
	C521.084351,70.977600 541.238159,70.991631 562.120056,70.991631 
	C561.597229,72.158401 561.234314,72.968422 560.473511,73.790665 
z"/>
<path fill="#D1FEEF" opacity="1.000000" stroke="none" 
	d="
M397.712402,71.529442 
	C378.732330,71.954353 359.600616,71.963760 340.468964,72.008286 
	C338.489349,72.012886 336.510223,72.226395 334.277344,72.683273 
	C333.811768,72.393341 333.599670,71.763100 333.387573,71.132866 
	C334.207214,71.089363 335.026886,71.006752 335.846466,71.008080 
	C356.417908,71.041336 376.989349,71.083435 397.712402,71.529442 
z"/>
<path fill="#C9F1EF" opacity="1.000000" stroke="none" 
	d="
M583.635315,72.046021 
	C583.007385,72.097641 582.831604,72.076820 582.391663,72.030624 
	C582.563171,71.676048 582.999329,71.058495 583.434570,71.059151 
	C602.544556,71.087769 621.654419,71.170998 640.778442,71.706223 
	C621.890869,72.101044 602.989197,72.037308 583.635315,72.046021 
z"/>
<path fill="#3D8672" opacity="1.000000" stroke="none" 
	d="
M499.476013,294.909851 
	C499.608887,294.597076 500.209778,294.108795 500.809204,294.110535 
	C519.626831,294.164703 538.444397,294.266571 557.596069,294.592285 
	C538.601196,294.869843 519.272278,294.916321 499.476013,294.909851 
z"/>
<path fill="#C9F1EF" opacity="1.000000" stroke="none" 
	d="
M313.785339,71.617844 
	C313.868408,72.057274 313.381683,72.087143 313.138977,72.105728 
	C294.282379,72.064957 275.668549,72.005600 256.596100,71.916245 
	C256.798492,71.589943 257.459656,71.034569 258.120422,71.035049 
	C276.647736,71.048439 295.175018,71.118050 313.785339,71.617844 
z"/>
<path fill="#3D8672" opacity="1.000000" stroke="none" 
	d="
M256.374817,294.387329 
	C256.174286,294.020782 256.641449,293.989532 256.875305,293.964600 
	C272.698730,293.956573 288.288330,293.961456 303.877777,294.006683 
	C305.686676,294.011932 307.494934,294.240967 309.630402,294.614502 
	C292.163361,294.826447 274.369354,294.790161 256.374817,294.387329 
z"/>
<path fill="#7FBAAB" opacity="1.000000" stroke="none" 
	d="
M237.377426,177.799683 
	C236.957199,177.791611 236.894455,177.491501 236.894714,177.338135 
	C237.261993,175.331802 237.938065,173.480347 237.947266,171.625595 
	C238.022705,156.400345 237.974075,141.174500 237.958115,125.481003 
	C238.305573,126.001251 238.961212,126.988113 238.965164,127.977577 
	C239.027008,143.454773 239.029953,158.932449 238.950012,174.409500 
	C238.944168,175.544205 238.199066,176.675079 237.377426,177.799683 
z"/>
<path fill="#3D8672" opacity="1.000000" stroke="none" 
	d="
M585.503540,294.912109 
	C585.639648,294.579865 586.238586,294.090881 586.835815,294.092926 
	C603.311340,294.149017 619.786804,294.255066 636.595581,294.586487 
	C619.941162,294.874847 602.953369,294.929504 585.503540,294.912109 
z"/>
<path fill="#3D8672" opacity="1.000000" stroke="none" 
	d="
M764.458252,294.941223 
	C764.578552,294.603882 765.166077,294.105560 765.751831,294.107544 
	C782.260437,294.163147 798.768982,294.269348 815.608276,294.605865 
	C798.934204,294.900818 781.929382,294.957123 764.458252,294.941223 
z"/>
<path fill="#80BFAF" opacity="1.000000" stroke="none" 
	d="
M238.930389,62.600998 
	C238.584641,61.174786 238.034683,59.272297 238.023956,57.366779 
	C237.939041,42.267532 237.956757,27.167709 237.920410,11.612809 
	C238.262100,12.416412 238.937851,13.673934 238.943253,14.934331 
	C239.010696,30.663754 238.980865,46.393593 238.930389,62.600998 
z"/>
<path fill="#3D8672" opacity="1.000000" stroke="none" 
	d="
M11.482810,294.972717 
	C11.085034,294.745514 11.146857,294.586151 11.440372,294.134979 
	C11.672064,293.843170 12.028642,293.763062 12.028642,293.763062 
	C26.324570,293.839569 40.620583,293.904236 54.916321,294.007355 
	C56.729790,294.020416 58.541809,294.234772 60.680893,294.614532 
	C44.652328,294.928986 28.297369,294.984772 11.482810,294.972717 
z"/>
<path fill="#74B5A5" opacity="1.000000" stroke="none" 
	d="
M342.845398,85.409729 
	C343.457214,85.537659 344.148254,86.015610 344.897827,86.831589 
	C344.279144,86.699654 343.601898,86.229706 342.845398,85.409729 
z"/>
<path fill="#74B5A5" opacity="1.000000" stroke="none" 
	d="
M340.903503,82.351982 
	C341.213104,82.541595 341.555450,83.063675 341.918762,83.909973 
	C341.605255,83.717606 341.270782,83.201027 340.903503,82.351982 
z"/>
<path fill="#74B5A5" opacity="1.000000" stroke="none" 
	d="
M339.947083,80.327225 
	C340.230255,80.507149 340.561951,81.000374 340.911926,81.802505 
	C340.618683,81.621117 340.307129,81.130821 339.947083,80.327225 
z"/>
<path fill="#74B5A5" opacity="1.000000" stroke="none" 
	d="
M400.085846,75.686623 
	C399.899811,75.745262 399.604980,75.543442 399.169128,75.109741 
	C399.344421,75.060616 399.660767,75.243393 400.085846,75.686623 
z"/>
<path fill="#1B7059" opacity="1.000000" stroke="none" 
	d="
M12.021793,293.316345 
	C12.028642,293.763062 11.672064,293.843170 11.493997,293.884216 
	C11.210985,291.770020 11.014387,289.614807 11.014289,287.459564 
	C11.010139,195.985962 11.023495,104.512367 11.098703,12.581797 
	C52.449429,12.096910 93.736145,12.068997 135.483551,12.095150 
	C133.843994,12.432000 131.744095,12.958495 129.643478,12.961349 
	C92.684944,13.011575 55.726330,12.993667 18.767735,13.001928 
	C12.152438,13.003407 12.006441,13.145094 12.006323,19.675779 
	C12.004677,110.740402 12.010752,201.805038 12.021793,293.316345 
z"/>
<path fill="#1B7059" opacity="1.000000" stroke="none" 
	d="
M233.058197,12.418481 
	C233.441864,12.134246 233.887802,12.103275 234.665695,12.125034 
	C234.371918,12.342424 233.746216,12.507085 233.058197,12.418481 
z"/>
</svg>